<svg xmlns="http://www.w3.org/2000/svg" xmlns:xlink="http://www.w3.org/1999/xlink" preserveAspectRatio="xMidYMid" width="158.406" height="804.844" viewBox="0 0 158.406 804.844">
  <defs>
    <style>
      .cls-1 {
        fill: #f5f9ff;
      }

      .cls-1, .cls-2 {
        fill-rule: evenodd;
      }

      .cls-2 {
        fill: #63c;
      }
    </style>
  </defs>
  <g>
    <path d="M-1.003,31.615 C-1.003,31.615 42.816,82.751 24.145,231.540 C24.145,231.540 5.755,392.915 53.918,455.131 C53.918,455.131 327.801,784.971 -11.319,804.838 L-284.134,803.699 L-258.004,485.752 L-279.882,68.286 L-211.096,-0.003 L-1.003,31.615 Z" class="cls-1"/>
    <path d="M123.518,366.964 C117.593,378.100 105.543,383.882 93.729,382.367 C90.914,382.007 88.111,381.231 85.408,380.015 C84.811,379.747 84.218,379.455 83.634,379.144 C77.748,376.013 73.357,371.173 70.750,365.560 C66.986,357.462 66.933,347.756 71.451,339.265 C72.943,336.461 74.822,333.998 76.987,331.906 C85.932,323.260 99.761,320.927 111.335,327.084 C125.713,334.733 131.168,352.588 123.518,366.964 ZM107.869,333.598 C99.191,328.982 88.820,330.731 82.116,337.213 C80.493,338.783 79.084,340.629 77.966,342.731 C74.578,349.097 74.618,356.373 77.441,362.445 C79.396,366.653 82.687,370.282 87.099,372.629 C87.539,372.863 87.983,373.081 88.431,373.282 C90.457,374.194 92.558,374.777 94.669,375.046 C103.526,376.181 112.560,371.847 117.003,363.497 C122.738,352.719 118.649,339.333 107.869,333.598 Z" class="cls-2"/>
    <path d="M70.006,695.801 L66.179,699.624 L59.000,692.450 L51.820,699.624 L47.994,695.801 L55.173,688.626 L47.994,681.452 L51.820,677.629 L59.000,684.803 L66.179,677.629 L70.006,681.452 L62.826,688.626 L70.006,695.801 Z" class="cls-2"/>
  </g>
</svg>
